{
  "accessors": [
    {
      "bufferView": 2,
      "componentType": 5126,
      "count": 15204,
      "max": [
        3758.840087890625,
        2391.919921875,
        3833.0
      ],
      "min": [
        -3758.7900390625,
        -2391.919921875,
        2.9785099029541016
      ],
      "type": "VEC3"
    },
    {
      "bufferView": 2,
      "byteOffset": 182448,
      "componentType": 5126,
      "count": 15204,
      "max": [
        0.9953044056892395,
        0.9997921586036682,
        0.9999873042106628
      ],
      "min": [
        -0.9992290735244751,
        -0.9998946785926819,
        -0.9999951124191284
      ],
      "type": "VEC3"
    },
    {
      "bufferView": 1,
      "componentType": 5126,
      "count": 15204,
      "max": [
        0.9807260036468506,
        0.9765300154685974
      ],
      "min": [
        0.01640239916741848,
        0.02911919355392456
      ],
      "type": "VEC2"
    },
    {
      "bufferView": 1,
      "byteOffset": 121632,
      "componentType": 5126,
      "count": 15204,
      "max": [
        0.9807260036468506,
        0.9765300154685974
      ],
      "min": [
        0.01640239916741848,
        0.02911919355392456
      ],
      "type": "VEC2"
    },
    {
      "bufferView": 1,
      "byteOffset": 243264,
      "componentType": 5126,
      "count": 15204,
      "max": [
        0.9807260036468506,
        0.9765300154685974
      ],
      "min": [
        0.01640239916741848,
        0.02911919355392456
      ],
      "type": "VEC2"
    },
    {
      "bufferView": 1,
      "byteOffset": 364896,
      "componentType": 5126,
      "count": 15204,
      "max": [
        0.9807260036468506,
        0.9765300154685974
      ],
      "min": [
        0.01640239916741848,
        0.02911919355392456
      ],
      "type": "VEC2"
    },
    {
      "bufferView": 1,
      "byteOffset": 486528,
      "componentType": 5126,
      "count": 15204,
      "max": [
        0.9807260036468506,
        0.9765300154685974
      ],
      "min": [
        0.01640239916741848,
        0.02911919355392456
      ],
      "type": "VEC2"
    },
    {
      "bufferView": 1,
      "byteOffset": 608160,
      "componentType": 5126,
      "count": 15204,
      "max": [
        0.9807260036468506,
        0.9765300154685974
      ],
      "min": [
        0.01640239916741848,
        0.02911919355392456
      ],
      "type": "VEC2"
    },
    {
      "bufferView": 1,
      "byteOffset": 729792,
      "componentType": 5126,
      "count": 15204,
      "max": [
        0.9807260036468506,
        0.9765300154685974
      ],
      "min": [
        0.01640239916741848,
        0.02911919355392456
      ],
      "type": "VEC2"
    },
    {
      "bufferView": 1,
      "byteOffset": 851424,
      "componentType": 5126,
      "count": 15204,
      "max": [
        0.9807260036468506,
        0.9765300154685974
      ],
      "min": [
        0.01640239916741848,
        0.02911919355392456
      ],
      "type": "VEC2"
    },
    {
      "bufferView": 1,
      "byteOffset": 973056,
      "componentType": 5126,
      "count": 15204,
      "max": [
        0.9807260036468506,
        0.9765300154685974
      ],
      "min": [
        0.01640239916741848,
        0.02911919355392456
      ],
      "type": "VEC2"
    },
    {
      "bufferView": 1,
      "byteOffset": 1094688,
      "componentType": 5126,
      "count": 15204,
      "max": [
        0.9807260036468506,
        0.9765300154685974
      ],
      "min": [
        0.01640239916741848,
        0.02911919355392456
      ],
      "type": "VEC2"
    },
    {
      "bufferView": 0,
      "componentType": 5125,
      "count": 15204,
      "type": "SCALAR"
    }
  ],
  "asset": {
    "extras": {
      "author": "House Doctor (https://sketchfab.com/chin4grci4)",
      "license": "CC-BY-4.0 (http://creativecommons.org/licenses/by/4.0/)",
      "source": "https://sketchfab.com/3d-models/banana-peel-6837ff9043d94451926b22987f3dacde",
      "title": "Banana Peel"
    },
    "generator": "Sketchfab-12.68.0",
    "version": "2.0"
  },
  "bufferViews": [
    {
      "buffer": 0,
      "byteLength": 60816,
      "name": "floatBufferViews",
      "target": 34963
    },
    {
      "buffer": 0,
      "byteLength": 1216320,
      "byteOffset": 60816,
      "byteStride": 8,
      "name": "floatBufferViews",
      "target": 34962
    },
    {
      "buffer": 0,
      "byteLength": 364896,
      "byteOffset": 1277136,
      "byteStride": 12,
      "name": "floatBufferViews",
      "target": 34962
    }
  ],
  "buffers": [
    {
      "byteLength": 1642032,
      "uri": "scene.bin"
    }
  ],
  "images": [
    {
      "uri": "textures/Material_957_baseColor.png"
    }
  ],
  "materials": [
    {
      "doubleSided": true,
      "emissiveFactor": [
        0.1995056819218211,
        0.1995056819218211,
        0.1995056819218211
      ],
      "emissiveTexture": {
        "index": 0
      },
      "name": "Material_957",
      "pbrMetallicRoughness": {
        "baseColorTexture": {
          "index": 0
        },
        "metallicFactor": 0.0
      }
    }
  ],
  "meshes": [
    {
      "name": "node_id27_Material_957_0",
      "primitives": [
        {
          "attributes": {
            "NORMAL": 1,
            "POSITION": 0,
            "TEXCOORD_0": 2,
            "TEXCOORD_1": 3,
            "TEXCOORD_2": 4,
            "TEXCOORD_3": 5,
            "TEXCOORD_4": 6,
            "TEXCOORD_5": 7,
            "TEXCOORD_6": 8,
            "TEXCOORD_7": 9,
            "TEXCOORD_8": 10,
            "TEXCOORD_9": 11
          },
          "indices": 12,
          "material": 0,
          "mode": 4
        }
      ]
    }
  ],
  "nodes": [
    {
      "children": [
        1
      ],
      "matrix": [
        1.0,
        0.0,
        0.0,
        0.0,
        0.0,
        2.220446049250313e-16,
        -1.0,
        0.0,
        0.0,
        1.0,
        2.220446049250313e-16,
        0.0,
        0.0,
        0.0,
        0.0,
        1.0
      ],
      "name": "Sketchfab_model"
    },
    {
      "children": [
        2
      ],
      "matrix": [
        0.009999999776482582,
        0.0,
        0.0,
        0.0,
        0.0,
        0.0,
        0.009999999776482582,
        0.0,
        0.0,
        -0.009999999776482582,
        0.0,
        0.0,
        0.0,
        0.0,
        0.0,
        1.0
      ],
      "name": "e63c6bf5e37f48909a048f97bdd752ed.fbx"
    },
    {
      "children": [
        3
      ],
      "name": "RootNode"
    },
    {
      "children": [
        4
      ],
      "name": "root"
    },
    {
      "children": [
        5
      ],
      "matrix": [
        0.0020814016461372375,
        0.0,
        0.0,
        0.0,
        0.0,
        0.0020814016461372375,
        0.0,
        0.0,
        0.0,
        0.0,
        0.0020814016461372375,
        0.0,
        0.021483013406395912,
        -0.3945000171661377,
        0.2560003101825714,
        1.0
      ],
      "name": "node_id27"
    },
    {
      "children": [
        6
      ],
      "matrix": [
        0.03272150084376335,
        0.0,
        0.0,
        0.0,
        0.0,
        2.0036140635806104e-18,
        -0.03272150084376335,
        0.0,
        -0.0,
        0.03272150084376335,
        2.0036140635806104e-18,
        0.0,
        -0.0028891200199723244,
        -0.09746129810810089,
        -0.00015290899318642914,
        1.0
      ],
      "name": "Object_5"
    },
    {
      "mesh": 0,
      "name": "node_id27_Material_957_0"
    }
  ],
  "samplers": [
    {
      "magFilter": 9729,
      "minFilter": 9987,
      "wrapS": 10497,
      "wrapT": 10497
    }
  ],
  "scene": 0,
  "scenes": [
    {
      "name": "Sketchfab_Scene",
      "nodes": [
        0
      ]
    }
  ],
  "textures": [
    {
      "sampler": 0,
      "source": 0
    }
  ]
}
