{
  "accessors": [
    {
      "bufferView": 2,
      "componentType": 5126,
      "count": 65532,
      "max": [
        4.603292942047119,
        3.8613779544830322,
        2.308242082595825
      ],
      "min": [
        -4.5306501388549805,
        -4.357603073120117,
        -3.2471349239349365
      ],
      "type": "VEC3"
    },
    {
      "bufferView": 2,
      "byteOffset": 786384,
      "componentType": 5126,
      "count": 65532,
      "max": [
        0.999869704246521,
        0.9999319314956665,
        0.9999987483024597
      ],
      "min": [
        -0.9999695420265198,
        -0.9999507665634155,
        -0.9998726844787598
      ],
      "type": "VEC3"
    },
    {
      "bufferView": 1,
      "componentType": 5126,
      "count": 65532,
      "max": [
        0.9993799924850464,
        1.0
      ],
      "min": [
        0.0,
        0.0
      ],
      "type": "VEC2"
    },
    {
      "bufferView": 0,
      "componentType": 5125,
      "count": 329094,
      "type": "SCALAR"
    },
    {
      "bufferView": 2,
      "byteOffset": 1572768,
      "componentType": 5126,
      "count": 31418,
      "max": [
        4.603292942047119,
        3.8258540630340576,
        1.9248820543289185
      ],
      "min": [
        -3.673492908477783,
        -3.7763969898223877,
        -3.243021011352539
      ],
      "type": "VEC3"
    },
    {
      "bufferView": 2,
      "byteOffset": 1949784,
      "componentType": 5126,
      "count": 31418,
      "max": [
        0.9993501305580139,
        0.9998970031738281,
        0.9999987483024597
      ],
      "min": [
        -0.9996984601020813,
        -0.9999117851257324,
        -0.9996497631072998
      ],
      "type": "VEC3"
    },
    {
      "bufferView": 1,
      "byteOffset": 524256,
      "componentType": 5126,
      "count": 31418,
      "max": [
        0.9995830059051514,
        1.0
      ],
      "min": [
        0.0,
        7.400000322377309e-05
      ],
      "type": "VEC2"
    },
    {
      "bufferView": 0,
      "byteOffset": 1316376,
      "componentType": 5125,
      "count": 120903,
      "type": "SCALAR"
    }
  ],
  "asset": {
    "extras": {
      "author": "hfenton (https://sketchfab.com/hfenton)",
      "license": "CC-BY-NC-ND-4.0 (http://creativecommons.org/licenses/by-nc-nd/4.0/)",
      "source": "https://sketchfab.com/3d-models/thats-shallot-b297cfe6b95240ecb4b8599dcd6b29ec",
      "title": "That's shallot!"
    },
    "generator": "Sketchfab-12.67.0",
    "version": "2.0"
  },
  "bufferViews": [
    {
      "buffer": 0,
      "byteLength": 1799988,
      "name": "floatBufferViews",
      "target": 34963
    },
    {
      "buffer": 0,
      "byteLength": 775600,
      "byteOffset": 1799988,
      "byteStride": 8,
      "name": "floatBufferViews",
      "target": 34962
    },
    {
      "buffer": 0,
      "byteLength": 2326800,
      "byteOffset": 2575588,
      "byteStride": 12,
      "name": "floatBufferViews",
      "target": 34962
    }
  ],
  "buffers": [
    {
      "byteLength": 4902388,
      "uri": "scene.bin"
    }
  ],
  "extensionsUsed": [
    "KHR_materials_unlit"
  ],
  "images": [
    {
      "uri": "textures/model_baseColor.jpeg"
    }
  ],
  "materials": [
    {
      "doubleSided": true,
      "extensions": {
        "KHR_materials_unlit": {}
      },
      "name": "model",
      "pbrMetallicRoughness": {
        "baseColorTexture": {
          "index": 0
        },
        "metallicFactor": 0.0
      }
    }
  ],
  "meshes": [
    {
      "name": "Object_0",
      "primitives": [
        {
          "attributes": {
            "NORMAL": 1,
            "POSITION": 0,
            "TEXCOORD_0": 2
          },
          "indices": 3,
          "material": 0,
          "mode": 4
        }
      ]
    },
    {
      "name": "Object_1",
      "primitives": [
        {
          "attributes": {
            "NORMAL": 5,
            "POSITION": 4,
            "TEXCOORD_0": 6
          },
          "indices": 7,
          "material": 0,
          "mode": 4
        }
      ]
    }
  ],
  "nodes": [
    {
      "children": [
        1
      ],
      "matrix": [
        0.7940188050270081,
        0.0337496958672999,
        0.6069556474685669,
        0.0,
        0.5146456956863403,
        0.4940790832042696,
        -0.7007322311401366,
        0.0,
        -0.3235335946083069,
        0.868761658668518,
        0.3749389350414278,
        0.0,
        -0.01671023853123188,
        0.059751957654952954,
        0.22822052240371704,
        1.0
      ],
      "name": "Sketchfab_model"
    },
    {
      "children": [
        2,
        3
      ],
      "name": "model.obj.cleaner.materialmerger.gles"
    },
    {
      "mesh": 0,
      "name": "Object_2"
    },
    {
      "mesh": 1,
      "name": "Object_3"
    }
  ],
  "samplers": [
    {
      "magFilter": 9729,
      "minFilter": 9987,
      "wrapS": 10497,
      "wrapT": 10497
    }
  ],
  "scene": 0,
  "scenes": [
    {
      "name": "Sketchfab_Scene",
      "nodes": [
        0
      ]
    }
  ],
  "textures": [
    {
      "sampler": 0,
      "source": 0
    }
  ]
}
